<?xml version="1.0" encoding="utf-8"?>
<!-- Generator: Adobe Illustrator 22.0.0, SVG Export Plug-In . SVG Version: 6.00 Build 0)  -->
<svg version="1.1" id="Слой_1" xmlns="http://www.w3.org/2000/svg" xmlns:xlink="http://www.w3.org/1999/xlink" x="0px" y="0px"
	 viewBox="0 0 80 45.4" style="enable-background:new 0 0 80 45.4;" xml:space="preserve">
<style type="text/css">
	.st0{fill:#1FE5DB;}
	.st1{fill:#FFFFFF;}
	.st2{fill:#FFD900;}
	.st3{fill-rule:evenodd;clip-rule:evenodd;fill:#1FE5DB;}
	.st4{fill-rule:evenodd;clip-rule:evenodd;fill:none;stroke:#FFFFFF;stroke-width:2.5;stroke-miterlimit:10;}
	.st5{fill-rule:evenodd;clip-rule:evenodd;fill:none;stroke:#FFFFFF;stroke-width:2;stroke-miterlimit:10;}
	.st6{fill:#9966CC;}
	.st7{fill:#BA6696;}
	.st8{fill:#FF6666;}
	.st9{fill:#929AAB;}
	.st10{fill:none;stroke:#FFFFFF;stroke-width:2;stroke-linecap:round;stroke-linejoin:round;stroke-miterlimit:10;}
	.st11{fill:none;stroke:#FFFFFF;stroke-width:2.5;stroke-linecap:round;stroke-linejoin:round;stroke-miterlimit:10;}
	.st12{fill:none;stroke:#FFFFFF;stroke-width:5;stroke-linecap:round;stroke-linejoin:round;stroke-miterlimit:10;}
	.st13{fill:none;stroke:#FFFFFF;stroke-width:5.67;stroke-linecap:round;stroke-miterlimit:10;}
	.st14{fill-rule:evenodd;clip-rule:evenodd;fill:#FFFFFF;}
</style>
<g>
	<path class="st1" d="M4.6,0h70.8c1.3,0,2.4,0.5,3.2,1.4c0.8,0.8,1.4,2,1.4,3.2v36.2c0,1.3-0.5,2.4-1.4,3.2c-0.8,0.8-2,1.4-3.2,1.4
		H4.6c-1.3,0-2.4-0.5-3.2-1.4c-0.8-0.8-1.4-2-1.4-3.2V4.6c0-1.3,0.5-2.4,1.4-3.2C2.2,0.5,3.3,0,4.6,0L4.6,0z M75.4,2.1H4.6
		c-0.7,0-1.3,0.3-1.7,0.7C2.4,3.3,2.1,3.9,2.1,4.6v36.2c0,0.7,0.3,1.3,0.7,1.7c0.5,0.5,1.1,0.7,1.7,0.7h70.8c0.7,0,1.3-0.3,1.7-0.7
		c0.5-0.4,0.7-1.1,0.7-1.7V4.6c0-0.7-0.3-1.3-0.7-1.7C76.7,2.4,76.1,2.1,75.4,2.1L75.4,2.1z"/>
	<path class="st1" d="M11.4,10.3h17.7c0.6,0,1.1,0.5,1.1,1.1v17.7c0,0.6-0.5,1.1-1.1,1.1H11.4c-0.6,0-1.1-0.5-1.1-1.1V11.4
		C10.3,10.8,10.8,10.3,11.4,10.3L11.4,10.3z M28,12.4H12.4V28H28V12.4z"/>
	<path class="st1" d="M33,11.4c0-0.6,0.5-1.1,1.1-1.1c0.6,0,1.1,0.5,1.1,1.1V34c0,0.6-0.5,1.1-1.1,1.1H11.4c-0.6,0-1.1-0.5-1.1-1.1
		c0-0.6,0.5-1.1,1.1-1.1H33V11.4z"/>
	<path class="st1" d="M68.6,21.6c0.6,0,1.1,0.5,1.1,1.1s-0.5,1.1-1.1,1.1H54.5c-0.6,0-1.1-0.5-1.1-1.1s0.5-1.1,1.1-1.1H68.6z"/>
	<path class="st1" d="M68.6,33c0.6,0,1.1,0.5,1.1,1.1c0,0.6-0.5,1.1-1.1,1.1H47.4c-0.6,0-1.1-0.5-1.1-1.1c0-0.6,0.5-1.1,1.1-1.1
		H68.6z"/>
	<path class="st1" d="M68.6,27.3c0.6,0,1.1,0.5,1.1,1.1c0,0.6-0.5,1.1-1.1,1.1H50.9c-0.6,0-1.1-0.5-1.1-1.1c0-0.6,0.5-1.1,1.1-1.1
		H68.6z"/>
</g>
</svg>
