<?xml version="1.0" encoding="utf-8"?>
<!-- Generator: Adobe Illustrator 22.0.0, SVG Export Plug-In . SVG Version: 6.00 Build 0)  -->
<svg version="1.1" id="Слой_1" xmlns="http://www.w3.org/2000/svg" xmlns:xlink="http://www.w3.org/1999/xlink" x="0px" y="0px"
	 viewBox="0 0 80 58.9" style="enable-background:new 0 0 80 58.9;" xml:space="preserve">
<style type="text/css">
	.st0{fill:#1FE5DB;}
	.st1{fill:#FFFFFF;}
	.st2{fill:#FFD900;}
	.st3{fill-rule:evenodd;clip-rule:evenodd;fill:#1FE5DB;}
	.st4{fill-rule:evenodd;clip-rule:evenodd;fill:none;stroke:#FFFFFF;stroke-width:2.5;stroke-miterlimit:10;}
	.st5{fill-rule:evenodd;clip-rule:evenodd;fill:none;stroke:#FFFFFF;stroke-width:2;stroke-miterlimit:10;}
	.st6{fill:#9966CC;}
	.st7{fill:#BA6696;}
	.st8{fill:#FF6666;}
	.st9{fill:#929AAB;}
	.st10{fill:none;stroke:#FFFFFF;stroke-width:2;stroke-linecap:round;stroke-linejoin:round;stroke-miterlimit:10;}
	.st11{fill:none;stroke:#FFFFFF;stroke-width:2.5;stroke-linecap:round;stroke-linejoin:round;stroke-miterlimit:10;}
	.st12{fill:none;stroke:#FFFFFF;stroke-width:5;stroke-linecap:round;stroke-linejoin:round;stroke-miterlimit:10;}
	.st13{fill:none;stroke:#FFFFFF;stroke-width:5.67;stroke-linecap:round;stroke-miterlimit:10;}
	.st14{fill-rule:evenodd;clip-rule:evenodd;fill:#FFFFFF;}
</style>
<g>
	<path class="st1" d="M5.3,4.9h69.4c1.5,0,2.8,0.6,3.8,1.6c1,1,1.6,2.3,1.6,3.8v43.4c0,1.5-0.6,2.8-1.6,3.8c-1,1-2.3,1.6-3.8,1.6
		H5.3c-1.5,0-2.8-0.6-3.8-1.6S0,55,0,53.5V10.2c0-1.5,0.6-2.8,1.6-3.8C2.5,5.5,3.9,4.9,5.3,4.9L5.3,4.9z M74.7,6.8H5.3
		c-0.9,0-1.8,0.4-2.4,1c-0.6,0.6-1,1.5-1,2.4v43.4c0,0.9,0.4,1.8,1,2.4c0.6,0.6,1.5,1,2.4,1h69.4c0.9,0,1.8-0.4,2.4-1
		c0.6-0.6,1-1.5,1-2.4V10.2c0-0.9-0.4-1.8-1-2.4C76.5,7.2,75.6,6.8,74.7,6.8L74.7,6.8z"/>
	<path class="st1" d="M13,1c0-0.5,0.4-1,1-1c0.5,0,1,0.4,1,1v9.8c0,0.5-0.4,1-1,1c-0.5,0-1-0.4-1-1V1z"/>
	<path class="st1" d="M26,1c0-0.5,0.4-1,1-1c0.5,0,1,0.4,1,1v9.8c0,0.5-0.4,1-1,1c-0.5,0-1-0.4-1-1V1z"/>
	<path class="st1" d="M39,1c0-0.5,0.4-1,1-1c0.5,0,1,0.4,1,1v9.8c0,0.5-0.4,1-1,1c-0.5,0-1-0.4-1-1V1z"/>
	<path class="st1" d="M52,1c0-0.5,0.4-1,1-1s1,0.4,1,1v9.8c0,0.5-0.4,1-1,1s-1-0.4-1-1V1z"/>
	<path class="st1" d="M65,1c0-0.5,0.4-1,1-1s1,0.4,1,1v9.8c0,0.5-0.4,1-1,1s-1-0.4-1-1V1z"/>
	<path class="st1" d="M1,32.8c-0.5,0-1-0.4-1-1c0-0.5,0.4-1,1-1h78c0.5,0,1,0.4,1,1c0,0.5-0.4,1-1,1H1z"/>
	<path class="st1" d="M1,45.9c-0.5,0-1-0.4-1-1s0.4-1,1-1h78c0.5,0,1,0.4,1,1s-0.4,1-1,1H1z"/>
	<path class="st1" d="M13,31.9c0-0.5,0.4-1,1-1c0.5,0,1,0.4,1,1v26c0,0.5-0.4,1-1,1c-0.5,0-1-0.4-1-1V31.9z"/>
	<path class="st1" d="M26,31.9c0-0.5,0.4-1,1-1c0.5,0,1,0.4,1,1v26c0,0.5-0.4,1-1,1c-0.5,0-1-0.4-1-1V31.9z"/>
	<path class="st1" d="M39,31.9c0-0.5,0.4-1,1-1c0.5,0,1,0.4,1,1v26c0,0.5-0.4,1-1,1c-0.5,0-1-0.4-1-1V31.9z"/>
	<path class="st1" d="M52,31.9c0-0.5,0.4-1,1-1s1,0.4,1,1v26c0,0.5-0.4,1-1,1s-1-0.4-1-1V31.9z"/>
	<path class="st1" d="M65,31.9c0-0.5,0.4-1,1-1s1,0.4,1,1v26c0,0.5-0.4,1-1,1s-1-0.4-1-1V31.9z"/>
	<path class="st1" d="M8.7,19c-0.5,0-1-0.4-1-1s0.4-1,1-1h26c0.5,0,1,0.4,1,1s-0.4,1-1,1H8.7z"/>
	<path class="st1" d="M8.7,25.5c-0.5,0-1-0.4-1-1s0.4-1,1-1h52c0.5,0,1,0.4,1,1s-0.4,1-1,1H8.7z"/>
</g>
</svg>
