<?xml version="1.0" encoding="utf-8"?>
<!-- Generator: Adobe Illustrator 22.0.0, SVG Export Plug-In . SVG Version: 6.00 Build 0)  -->
<svg version="1.1" id="Слой_1" xmlns="http://www.w3.org/2000/svg" xmlns:xlink="http://www.w3.org/1999/xlink" x="0px" y="0px"
	 viewBox="0 0 80 80" style="enable-background:new 0 0 80 80;" xml:space="preserve">
<style type="text/css">
	.st0{fill:#1FE5DB;}
	.st1{fill:#FFFFFF;}
	.st2{fill:#FFD900;}
	.st3{fill-rule:evenodd;clip-rule:evenodd;fill:#1FE5DB;}
	.st4{fill-rule:evenodd;clip-rule:evenodd;fill:none;stroke:#FFFFFF;stroke-width:2.5;stroke-miterlimit:10;}
	.st5{fill-rule:evenodd;clip-rule:evenodd;fill:none;stroke:#FFFFFF;stroke-width:2;stroke-miterlimit:10;}
	.st6{fill:#9966CC;}
	.st7{fill:#BA6696;}
	.st8{fill:#FF6666;}
	.st9{fill:#929AAB;}
	.st10{fill:none;stroke:#FFFFFF;stroke-width:2;stroke-linecap:round;stroke-linejoin:round;stroke-miterlimit:10;}
	.st11{fill:none;stroke:#FFFFFF;stroke-width:2.5;stroke-linecap:round;stroke-linejoin:round;stroke-miterlimit:10;}
	.st12{fill:none;stroke:#FFFFFF;stroke-width:5;stroke-linecap:round;stroke-linejoin:round;stroke-miterlimit:10;}
	.st13{fill:none;stroke:#FFFFFF;stroke-width:5.67;stroke-linecap:round;stroke-miterlimit:10;}
	.st14{fill-rule:evenodd;clip-rule:evenodd;fill:#FFFFFF;}
</style>
<g>
	<path class="st1" d="M8.1,0h21.2c2.2,0,4.3,0.9,5.7,2.4c1.5,1.5,2.4,3.5,2.4,5.7v21.2c0,2.2-0.9,4.3-2.4,5.7
		c-1.5,1.5-3.5,2.4-5.7,2.4H8.1c-2.2,0-4.3-0.9-5.7-2.4C0.9,33.7,0,31.6,0,29.4V8.1c0-2.2,0.9-4.3,2.4-5.7C3.9,0.9,5.9,0,8.1,0
		L8.1,0z M29.4,2.1H8.1C6.5,2.1,5,2.8,3.9,3.9S2.1,6.5,2.1,8.1v21.2c0,1.7,0.7,3.2,1.8,4.2s2.6,1.8,4.2,1.8h21.2
		c1.7,0,3.2-0.7,4.2-1.8s1.8-2.6,1.8-4.2V8.1c0-1.6-0.7-3.2-1.8-4.2S31,2.1,29.4,2.1L29.4,2.1z"/>
	<path class="st1" d="M8.1,42.5h21.2c2.2,0,4.3,0.9,5.7,2.4c1.5,1.5,2.4,3.5,2.4,5.7v21.2c0,2.2-0.9,4.3-2.4,5.7
		c-1.5,1.5-3.5,2.4-5.7,2.4H8.1c-2.2,0-4.3-0.9-5.7-2.4C0.9,76.1,0,74.1,0,71.9V50.6c0-2.2,0.9-4.3,2.4-5.7
		C3.9,43.4,5.9,42.5,8.1,42.5L8.1,42.5z M29.4,44.6H8.1c-1.6,0-3.2,0.7-4.2,1.8c-1.1,1.1-1.8,2.6-1.8,4.2v21.2
		c0,1.7,0.7,3.2,1.8,4.2c1.1,1.1,2.6,1.8,4.2,1.8h21.2c1.7,0,3.2-0.7,4.2-1.8c1.1-1.1,1.8-2.6,1.8-4.2V50.6c0-1.6-0.7-3.2-1.8-4.2
		C32.5,45.3,31,44.6,29.4,44.6L29.4,44.6z"/>
	<path class="st1" d="M50.6,0h21.2c2.2,0,4.3,0.9,5.7,2.4C79.1,3.9,80,5.9,80,8.1v21.2c0,2.2-0.9,4.3-2.4,5.7
		c-1.5,1.5-3.5,2.4-5.7,2.4H50.6c-2.2,0-4.3-0.9-5.7-2.4c-1.5-1.5-2.4-3.5-2.4-5.7V8.1c0-2.2,0.9-4.3,2.4-5.7
		C46.3,0.9,48.4,0,50.6,0L50.6,0z M71.9,2.1H50.6c-1.6,0-3.2,0.7-4.2,1.8c-1.1,1.1-1.8,2.6-1.8,4.2v21.2c0,1.7,0.7,3.2,1.8,4.2
		c1.1,1.1,2.6,1.8,4.2,1.8h21.2c1.7,0,3.2-0.7,4.2-1.8c1.1-1.1,1.8-2.6,1.8-4.2V8.1c0-1.6-0.7-3.2-1.8-4.2C75,2.8,73.5,2.1,71.9,2.1
		L71.9,2.1z"/>
	<path class="st1" d="M50.6,42.5h21.2c2.2,0,4.3,0.9,5.7,2.4c1.5,1.5,2.4,3.5,2.4,5.7v21.2c0,2.2-0.9,4.3-2.4,5.7
		c-1.5,1.5-3.5,2.4-5.7,2.4H50.6c-2.2,0-4.3-0.9-5.7-2.4c-1.5-1.5-2.4-3.5-2.4-5.7V50.6c0-2.2,0.9-4.3,2.4-5.7
		C46.3,43.4,48.4,42.5,50.6,42.5L50.6,42.5z M71.9,44.6H50.6c-1.6,0-3.2,0.7-4.2,1.8c-1.1,1.1-1.8,2.6-1.8,4.2v21.2
		c0,1.7,0.7,3.2,1.8,4.2c1.1,1.1,2.6,1.8,4.2,1.8h21.2c1.7,0,3.2-0.7,4.2-1.8c1.1-1.1,1.8-2.6,1.8-4.2V50.6c0-1.6-0.7-3.2-1.8-4.2
		C75,45.3,73.5,44.6,71.9,44.6L71.9,44.6z"/>
	<path class="st1" d="M19.8,21.2c1.1-0.9,2-0.4,2.8,0.6c0.2,0.2,0.3,0.3,0.4,0.5c0.4,0.5,0.7,0.9,0.9,1c0.6,0.1,1.7,0.2,2.6,0.2
		c0.3,0,0.6,0,0.7,0l-0.1-0.1c-0.2-0.3-0.6-0.7-1.1-1.1l0,0c-0.9-0.8-1.8-1.6-2-2.5c-0.2-1,0.7-2.2,1.7-3.4c0.5-0.6,1-1.3,1.2-1.6
		c0.1-0.2,0.2-0.4,0.2-0.5l-0.2,0c-0.3,0-0.6-0.1-1-0.1c-0.3,0-0.7,0-1,0.1c-0.2,0-0.4,0.1-0.6,0.1c-0.1,0.2-0.3,0.7-0.6,1.3
		c-0.3,0.8-0.6,1.5-1,2l0,0l-0.1,0.1c-0.8,1.1-1.6,2.2-2.9,1.7c-0.9-0.4-0.8-1.8-0.8-3.3c0-1,0.1-2.1,0-2.1c0,0-0.5-0.1-1.1-0.2
		c-0.4,0-0.9-0.1-1.3,0l0,0c0.1,0.4,0.2,0.9,0.3,1.3c0.1,0.4,0.1,0.9,0.1,1.3c0,0.1,0,0.3,0,0.5c0,0.2,0,0.3,0,0.5v0
		c0,0.2-0.1,0.5-0.1,0.7c-0.1,0.4-0.2,0.7-0.4,0.9c-0.3,0.5-0.8,0.7-1.3,0.6c0,0-0.1,0-0.1,0l-0.2-0.1l-0.2-0.2
		c-0.6-0.5-1.1-1-1.6-1.6c-0.5-0.6-0.8-1.3-1.2-1.9v0c-0.3-0.8-0.4-1.3-0.5-1.6c0,0,0,0,0,0c-0.1,0-0.2,0-0.3-0.1
		c-0.5-0.1-1.1-0.1-1.7,0h0c0.3,0.9,0.7,1.8,1.1,2.6c0.6,1.2,1.3,2.3,2.1,3.3c0.9,1.1,1.7,1.9,2.5,2.4c0.8,0.5,1.6,0.8,2.4,0.8
		c0.7,0.1,1.2,0.1,1.5,0c0-0.1,0-0.3,0-0.4C19,22.4,19,21.9,19.8,21.2L19.8,21.2z M21.2,22.9C21.2,22.8,21.3,22.7,21.2,22.9
		L21.2,22.9C21.2,22.8,21.2,22.9,21.2,22.9L21.2,22.9z M21.4,23.7l-0.2-0.3c0,0.1,0,0.3,0,0.4c-0.1,0.9-0.4,1.4-1.3,1.7
		c-0.5,0.2-1.3,0.2-2.4,0.1c-1.2-0.1-2.3-0.5-3.4-1.2c-1-0.7-2-1.6-3.1-2.9l0,0c-0.9-1.1-1.6-2.4-2.3-3.6c-0.6-1.3-1.2-2.6-1.6-4
		L7,13.6l0-0.2c0-0.1,0-0.2,0.1-0.3l0,0c0.3-0.6,1.1-0.9,2.1-1c0.7-0.1,1.6,0,2.2,0.1c0.3,0.1,0.6,0.1,0.8,0.2c1,0.5,1,0.7,1.2,1.5
		c0,0.2,0.1,0.6,0.4,1.2l0,0c0.2,0.5,0.6,1.1,0.9,1.5c0.1,0.1,0.1,0.2,0.2,0.3c0-0.1,0-0.2,0-0.3c0-0.3,0-0.7-0.1-1
		c0-0.2-0.1-0.4-0.1-0.6c-0.1,0-0.3,0-0.5-0.1c-0.2-0.1-0.4-0.2-0.5-0.4c-0.3-0.4-0.4-0.8-0.2-1.2v0c0.1-0.2,0.2-0.3,0.4-0.5
		c0.2-0.2,0.7-0.5,1.2-0.7c0.6-0.2,1.9-0.3,3-0.2c1.1,0.1,2.1,0.4,2.5,1c0.5,0.6,0.5,2.1,0.4,3.5c0,0.1,0,0.1,0,0.2l0,0l0,0
		c0.2-0.3,0.5-0.9,0.8-1.6c0.4-0.9,0.8-1.8,1.3-2.2l0.2-0.1l0.2-0.1c0.4-0.1,0.8-0.2,1.2-0.2c0.4-0.1,0.8-0.1,1.2-0.1
		c0.4,0,0.8,0,1.2,0.1c0.4,0,0.8,0.1,1.2,0.2l0.1,0l0.1,0.1c1.3,0.8,1.1,1.2,0.4,2.6c-0.1,0.2-0.2,0.3-0.3,0.6
		c-0.3,0.6-0.8,1.3-1.4,2.1c-0.6,0.8-1.3,1.6-1.3,1.6c0,0.2,0.7,0.8,1.4,1.3l0,0c0.6,0.5,1.1,1,1.4,1.4c0.4,0.6,0.6,1,0.7,1.5
		c0.1,0.6-0.2,1.1-0.6,1.5c-0.4,0.4-1.4,0.5-2.5,0.5c-1,0-2.3-0.1-3-0.3C22.6,25.2,22,24.4,21.4,23.7L21.4,23.7z M20.7,17.6
		c0.2,0.1,0.1-0.2,0.2-0.6C20.7,17.3,20.4,17.5,20.7,17.6L20.7,17.6z"/>
	<path class="st1" d="M62.9,63v14.8h3.9V62h4.5v-1.5h-4.5v-1.1c0-1.8,0.2-3.1,1.1-4.1c0.7-0.8,1.8-1.2,3.3-1.3v-1.5
		c-8.1-0.3-8.3,4.1-8.4,6.6l0,0.3l0,1h-2.5V62h2.6V63z M60.8,78.9V64.1h-2.6v-5.7h2.7c0.2-3.5,1.1-8.7,11.6-7.9l1,0.1v5.6h-1.1
		c-1.5,0-2.4,0.2-2.8,0.7c-0.3,0.3-0.4,0.9-0.5,1.6h4.4v5.7h-4.5V80h-8.2V78.9z"/>
	<path class="st14" d="M61.2,9.8c4.9,0,8.8,4,8.8,8.8c0,4.9-4,8.8-8.8,8.8s-8.8-4-8.8-8.8C52.4,13.8,56.4,9.8,61.2,9.8L61.2,9.8z
		 M66,13.9c-1.2-1.2-2.9-2-4.8-2c-1.9,0-3.5,0.8-4.8,2c-1.2,1.2-2,2.9-2,4.8c0,1.9,0.8,3.5,2,4.8c1.2,1.2,2.9,2,4.8,2
		c1.9,0,3.5-0.8,4.8-2c1.2-1.2,2-2.9,2-4.8C68,16.8,67.2,15.1,66,13.9L66,13.9z"/>
	<path class="st1" d="M72.2,4.9c0.8,0,1.5,0.3,2,0.8C74.7,6.3,75,7,75,7.8c0,0.8-0.3,1.5-0.8,2v0c-0.5,0.5-1.2,0.8-2,0.8
		c-0.8,0-1.5-0.3-2-0.8l0,0c-0.5-0.5-0.8-1.2-0.8-2c0-0.8,0.3-1.5,0.8-2h0C70.7,5.3,71.4,4.9,72.2,4.9L72.2,4.9z M72.7,7.3
		c-0.1-0.1-0.3-0.2-0.5-0.2c-0.2,0-0.4,0.1-0.5,0.2h0c-0.1,0.1-0.2,0.3-0.2,0.5s0.1,0.4,0.2,0.5c0.1,0.1,0.3,0.2,0.5,0.2
		c0.2,0,0.4-0.1,0.5-0.2v0c0.1-0.1,0.2-0.3,0.2-0.5S72.8,7.4,72.7,7.3L72.7,7.3z"/>
	<path class="st1" d="M27.9,61.9l-14.1,8.8c-0.5,0.3-1.2,0.2-1.5-0.3c-0.1-0.2-0.2-0.4-0.2-0.6l0,0V52.1c0-0.6,0.5-1.1,1.1-1.1
		c0.2,0,0.4,0.1,0.6,0.2l14.1,8.8c0.5,0.3,0.7,1,0.3,1.5C28.1,61.7,28,61.8,27.9,61.9L27.9,61.9z M19.7,64.5l5.6-3.5L14.2,54v13.9
		L19.7,64.5z"/>
</g>
</svg>
