<?xml version="1.0" encoding="utf-8"?>
<!-- Generator: Adobe Illustrator 22.0.0, SVG Export Plug-In . SVG Version: 6.00 Build 0)  -->
<svg version="1.1" id="Слой_1" xmlns="http://www.w3.org/2000/svg" xmlns:xlink="http://www.w3.org/1999/xlink" x="0px" y="0px"
	 viewBox="0 0 80 59.6" style="enable-background:new 0 0 80 59.6;" xml:space="preserve">
<style type="text/css">
	.st0{fill:#1FE5DB;}
	.st1{fill:#FFFFFF;}
	.st2{fill:#FFD900;}
	.st3{fill-rule:evenodd;clip-rule:evenodd;fill:#1FE5DB;}
	.st4{fill-rule:evenodd;clip-rule:evenodd;fill:none;stroke:#FFFFFF;stroke-width:2.5;stroke-miterlimit:10;}
	.st5{fill-rule:evenodd;clip-rule:evenodd;fill:none;stroke:#FFFFFF;stroke-width:2;stroke-miterlimit:10;}
	.st6{fill:#9966CC;}
	.st7{fill:#BA6696;}
	.st8{fill:#FF6666;}
	.st9{fill:#929AAB;}
	.st10{fill:none;stroke:#FFFFFF;stroke-width:2;stroke-linecap:round;stroke-linejoin:round;stroke-miterlimit:10;}
	.st11{fill:none;stroke:#FFFFFF;stroke-width:2.5;stroke-linecap:round;stroke-linejoin:round;stroke-miterlimit:10;}
	.st12{fill:none;stroke:#FFFFFF;stroke-width:5;stroke-linecap:round;stroke-linejoin:round;stroke-miterlimit:10;}
	.st13{fill:none;stroke:#FFFFFF;stroke-width:5.67;stroke-linecap:round;stroke-miterlimit:10;}
	.st14{fill-rule:evenodd;clip-rule:evenodd;fill:#FFFFFF;}
</style>
<g>
	<path class="st1" d="M8.1,3.5h63.7c1.3,0,2.4,0.5,3.2,1.4c0.8,0.8,1.4,2,1.4,3.2v32.7c0,1.3-0.5,2.4-1.4,3.2
		c-0.8,0.8-2,1.4-3.2,1.4H8.1c-1.3,0-2.4-0.5-3.2-1.4c-0.8-0.8-1.4-2-1.4-3.2V8.1c0-1.3,0.5-2.4,1.4-3.2S6.9,3.5,8.1,3.5L8.1,3.5z
		 M71.9,5.7H8.1c-0.7,0-1.3,0.3-1.7,0.7C5.9,6.8,5.7,7.5,5.7,8.1v32.7c0,0.7,0.3,1.3,0.7,1.7c0.5,0.5,1.1,0.7,1.7,0.7h63.7
		c0.7,0,1.3-0.3,1.7-0.7c0.5-0.4,0.7-1.1,0.7-1.7V8.1c0-0.7-0.3-1.3-0.7-1.7C73.2,5.9,72.5,5.7,71.9,5.7L71.9,5.7z"/>
	<path class="st1" d="M8.1,0h63.7c2.2,0,4.3,0.9,5.7,2.4C79.1,3.9,80,5.9,80,8.1v32.7c0,2.2-0.9,4.3-2.4,5.7
		c-1.5,1.5-3.5,2.4-5.7,2.4H8.1c-2.2,0-4.3-0.9-5.7-2.4C0.9,45.2,0,43.1,0,40.9V8.1c0-2.2,0.9-4.3,2.4-5.7C3.9,0.9,5.9,0,8.1,0
		L8.1,0z M71.9,2.1H8.1C6.5,2.1,5,2.8,3.9,3.9C2.8,5,2.1,6.5,2.1,8.1v32.7c0,1.7,0.7,3.2,1.8,4.2s2.6,1.8,4.2,1.8h63.7
		c1.7,0,3.2-0.7,4.2-1.8c1.1-1.1,1.8-2.6,1.8-4.2V8.1c0-1.6-0.7-3.2-1.8-4.2C75,2.8,73.5,2.1,71.9,2.1L71.9,2.1z"/>
	<path class="st1" d="M24.1,57.5h31.9c0.2,0,0.4-0.1,0.5-0.2c0.1-0.1,0.2-0.3,0.2-0.5s-0.1-0.4-0.2-0.5c-0.1-0.1-0.3-0.2-0.5-0.2
		h-8.8c-0.8,0-1.4-0.2-1.9-0.4c-0.5-0.3-1-0.6-1.3-0.9h0c-0.3-0.3-0.7-0.8-0.9-1.3c-0.3-0.5-0.4-1.2-0.4-1.9V49h-5v2.5
		c0,0.7-0.1,1.3-0.3,1.8c-0.3,0.6-0.6,1.1-1,1.5c-0.4,0.4-0.9,0.7-1.5,1c-0.5,0.2-1.1,0.3-1.8,0.3h-8.8c-0.2,0-0.4,0.1-0.5,0.2
		c-0.1,0.1-0.2,0.3-0.2,0.5c0,0.2,0.1,0.4,0.2,0.5h0C23.7,57.4,23.9,57.5,24.1,57.5L24.1,57.5z M55.9,59.6H24.1
		c-0.8,0-1.5-0.3-2-0.8l0,0c-0.5-0.5-0.8-1.2-0.8-2c0-0.8,0.3-1.5,0.8-2c0.5-0.5,1.2-0.8,2-0.8h8.8c0.4,0,0.7-0.1,0.9-0.2
		c0.3-0.1,0.6-0.3,0.8-0.6c0.2-0.2,0.4-0.5,0.6-0.8c0.1-0.3,0.2-0.6,0.2-0.9v-4.6h9.2v4.6c0,0.4,0.1,0.8,0.2,1
		c0.1,0.3,0.3,0.5,0.5,0.7h0c0.2,0.2,0.4,0.4,0.7,0.5c0.3,0.1,0.6,0.2,1,0.2h8.8c0.8,0,1.5,0.3,2,0.8h0c0.5,0.5,0.8,1.2,0.8,2
		c0,0.8-0.3,1.5-0.8,2C57.4,59.3,56.7,59.6,55.9,59.6L55.9,59.6z"/>
	<path class="st1" d="M35.8,10.5h8.5c1.1,0,2,0.4,2.8,1.1c0.7,0.7,1.1,1.7,1.1,2.7v8.5c0,1.1-0.4,2-1.1,2.8
		c-0.7,0.7-1.7,1.1-2.8,1.1h-8.5c-1.1,0-2-0.4-2.7-1.1c-0.7-0.7-1.1-1.7-1.1-2.8v-8.5c0-1.1,0.4-2,1.1-2.7
		C33.7,11,34.7,10.5,35.8,10.5L35.8,10.5z M44.2,12.7h-8.5c-0.5,0-0.9,0.2-1.2,0.5c-0.3,0.3-0.5,0.8-0.5,1.2v8.5
		c0,0.5,0.2,0.9,0.5,1.3c0.3,0.3,0.8,0.5,1.2,0.5h8.5c0.5,0,0.9-0.2,1.3-0.5c0.3-0.3,0.5-0.8,0.5-1.3v-8.5c0-0.5-0.2-0.9-0.5-1.2
		C45.2,12.9,44.7,12.7,44.2,12.7L44.2,12.7z"/>
	<path class="st1" d="M57,10.5h8.5c1.1,0,2,0.4,2.8,1.1c0.7,0.7,1.1,1.7,1.1,2.7v8.5c0,1.1-0.4,2-1.1,2.8c-0.7,0.7-1.7,1.1-2.8,1.1
		H57c-1.1,0-2-0.4-2.7-1.1c-0.7-0.7-1.1-1.7-1.1-2.8v-8.5c0-1.1,0.4-2,1.1-2.7C54.9,11,55.9,10.5,57,10.5L57,10.5z M65.5,12.7H57
		c-0.5,0-0.9,0.2-1.2,0.5c-0.3,0.3-0.5,0.8-0.5,1.2v8.5c0,0.5,0.2,0.9,0.5,1.3c0.3,0.3,0.8,0.5,1.2,0.5h8.5c0.5,0,0.9-0.2,1.3-0.5
		c0.3-0.3,0.5-0.8,0.5-1.3v-8.5c0-0.5-0.2-0.9-0.5-1.2C66.4,12.9,66,12.7,65.5,12.7L65.5,12.7z"/>
	<path class="st1" d="M14.5,10.5H23c1.1,0,2,0.4,2.8,1.1c0.7,0.7,1.1,1.7,1.1,2.7v8.5c0,1.1-0.4,2-1.1,2.8c-0.7,0.7-1.7,1.1-2.8,1.1
		h-8.5c-1.1,0-2-0.4-2.7-1.1c-0.7-0.7-1.1-1.7-1.1-2.8v-8.5c0-1.1,0.4-2,1.1-2.7C12.5,11,13.4,10.5,14.5,10.5L14.5,10.5z M23,12.7
		h-8.5c-0.5,0-0.9,0.2-1.2,0.5c-0.3,0.3-0.5,0.8-0.5,1.2v8.5c0,0.5,0.2,0.9,0.5,1.3c0.3,0.3,0.8,0.5,1.2,0.5H23
		c0.5,0,0.9-0.2,1.3-0.5c0.3-0.3,0.5-0.8,0.5-1.3v-8.5c0-0.5-0.2-0.9-0.5-1.2C23.9,12.9,23.5,12.7,23,12.7L23,12.7z"/>
	<path class="st1" d="M11.7,38.5c-0.6,0-1.1-0.5-1.1-1.1s0.5-1.1,1.1-1.1h14.2c0.6,0,1.1,0.5,1.1,1.1s-0.5,1.1-1.1,1.1H11.7z"/>
	<path class="st1" d="M32.9,38.5c-0.6,0-1.1-0.5-1.1-1.1s0.5-1.1,1.1-1.1h14.2c0.6,0,1.1,0.5,1.1,1.1s-0.5,1.1-1.1,1.1H32.9z"/>
	<path class="st1" d="M54.2,38.5c-0.6,0-1.1-0.5-1.1-1.1s0.5-1.1,1.1-1.1h14.2c0.6,0,1.1,0.5,1.1,1.1s-0.5,1.1-1.1,1.1H54.2z"/>
	<path class="st1" d="M11.7,33.9c-0.6,0-1.1-0.5-1.1-1.1c0-0.6,0.5-1.1,1.1-1.1h14.2c0.6,0,1.1,0.5,1.1,1.1c0,0.6-0.5,1.1-1.1,1.1
		H11.7z"/>
	<path class="st1" d="M32.9,33.9c-0.6,0-1.1-0.5-1.1-1.1c0-0.6,0.5-1.1,1.1-1.1h14.2c0.6,0,1.1,0.5,1.1,1.1c0,0.6-0.5,1.1-1.1,1.1
		H32.9z"/>
	<path class="st1" d="M54.2,33.9c-0.6,0-1.1-0.5-1.1-1.1c0-0.6,0.5-1.1,1.1-1.1h14.2c0.6,0,1.1,0.5,1.1,1.1c0,0.6-0.5,1.1-1.1,1.1
		H54.2z"/>
</g>
</svg>
