<?xml version="1.0" encoding="utf-8"?>
<!-- Generator: Adobe Illustrator 22.0.0, SVG Export Plug-In . SVG Version: 6.00 Build 0)  -->
<svg version="1.1" id="Слой_1" xmlns="http://www.w3.org/2000/svg" xmlns:xlink="http://www.w3.org/1999/xlink" x="0px" y="0px"
	 viewBox="0 0 119.3 70" style="enable-background:new 0 0 119.3 70;" xml:space="preserve">
<style type="text/css">
	.st0{fill:#1FE5DB;}
	.st1{fill:#FFFFFF;}
	.st2{fill:#FFD900;}
	.st3{fill-rule:evenodd;clip-rule:evenodd;fill:#1FE5DB;}
	.st4{fill-rule:evenodd;clip-rule:evenodd;fill:none;stroke:#FFFFFF;stroke-width:2.5;stroke-miterlimit:10;}
	.st5{fill-rule:evenodd;clip-rule:evenodd;fill:none;stroke:#FFFFFF;stroke-width:2;stroke-miterlimit:10;}
	.st6{fill:#9966CC;}
	.st7{fill:#BA6696;}
	.st8{fill:#FF6666;}
	.st9{fill:#929AAB;}
	.st10{fill:none;stroke:#FFFFFF;stroke-width:2;stroke-linecap:round;stroke-linejoin:round;stroke-miterlimit:10;}
	.st11{fill:none;stroke:#FFFFFF;stroke-width:2.5;stroke-linecap:round;stroke-linejoin:round;stroke-miterlimit:10;}
	.st12{fill:none;stroke:#FFFFFF;stroke-width:5;stroke-linecap:round;stroke-linejoin:round;stroke-miterlimit:10;}
	.st13{fill:none;stroke:#FFFFFF;stroke-width:5.67;stroke-linecap:round;stroke-miterlimit:10;}
	.st14{fill-rule:evenodd;clip-rule:evenodd;fill:#FFFFFF;}
</style>
<g>
	<path class="st2" d="M49.7,35c0,3-0.9,5.8-2.5,8.2l-0.5-0.5c-0.4-0.4-0.9-0.6-1.4-0.6h-8.6c-0.7,0-1,0.8-0.5,1.3l4.9,5
		c-1.9,0.9-3.9,1.3-6.1,1.3c-8.1,0-14.7-6.6-14.7-14.7S26.9,20.3,35,20.3S49.7,26.9,49.7,35z"/>
	<path class="st2" d="M61.7,57.6c5.2-6.1,8.3-14,8.3-22.6C70,15.7,54.3,0,35,0S0,15.7,0,35c0,19.3,15.7,35,35,35
		c9.8,0,18.7-4.1,25.1-10.6h-7.3c-0.5,0-1-0.2-1.3-0.6l-3.8-3.9c-3.6,2.3-7.9,3.6-12.6,3.6C22,58.6,11.4,48,11.4,35S22,11.4,35,11.4
		S58.6,22,58.6,35c0,5.5-1.9,10.5-5,14.5L61.7,57.6z"/>
	<g>
		<g>
			<path class="st1" d="M78.8,45.4h-2c-0.5,0-0.9-0.4-0.9-0.9V22.8c0-0.5,0.4-0.9,0.9-0.9h2c0.5,0,0.9,0.4,0.9,0.9v21.7
				C79.6,45,79.2,45.4,78.8,45.4z"/>
			<path class="st1" d="M98,45.4h-2c-0.5,0-0.9-0.4-0.9-0.9V30.3c0-0.5,0.4-0.9,0.9-0.9h2c0.5,0,0.9,0.4,0.9,0.9v14.2
				C98.9,45,98.5,45.4,98,45.4z"/>
			<path class="st1" d="M105.8,45.4h-2c-0.5,0-0.9-0.4-0.9-0.9V22.8c0-0.5,0.4-0.9,0.9-0.9h2c0.5,0,0.9,0.4,0.9,0.9v21.7
				C106.7,45,106.3,45.4,105.8,45.4z"/>
			<path class="st1" d="M98.6,37.6l-3.4-0.5c-0.2-2.3-2.1-4.1-4.5-4.3c-2.6-0.1-4.9,2-5,4.7c0,2.7,2.1,4.8,4.7,4.8
				c0.3,0,0.7,0,1-0.1c0.4-0.1,0.8,0.1,1,0.5l0.6,1.7c0.2,0.5-0.1,1-0.6,1.1c-0.7,0.2-1.5,0.3-2.3,0.3c-4.2-0.1-7.7-3.6-7.9-7.9
				c-0.1-4.6,3.6-8.4,8.2-8.4C94.9,29.4,98.6,33.1,98.6,37.6z"/>
			<path class="st1" d="M103,37.6l3.4-0.5c0.2-2.3,2.1-4.1,4.5-4.3c2.6-0.1,4.9,2,5,4.7c0,2.7-2.1,4.8-4.7,4.8c-0.3,0-0.7,0-1-0.1
				c-0.4-0.1-0.8,0.1-1,0.5l-0.6,1.7c-0.2,0.5,0.1,1,0.6,1.1c0.7,0.2,1.5,0.3,2.3,0.3c4.2-0.1,7.7-3.6,7.9-7.9
				c0.1-4.6-3.6-8.4-8.2-8.4C106.6,29.4,103,33.1,103,37.6z"/>
		</g>
	</g>
	<rect x="75.9" y="48.9" class="st1" width="43" height="0.8"/>
	<g>
		<g>
			<path class="st1" d="M75.8,56.3v-4.2h0.6v4.2H75.8z"/>
			<path class="st1" d="M78.4,56.3v-3.7h-1.4v-0.5h3.3v0.5H79v3.7H78.4z"/>
			<path class="st1" d="M82.2,55v-0.5h1.6V55H82.2z"/>
			<path class="st1" d="M86,52.1h0.6v1.8c0.3,0,0.4,0,0.5-0.1c0.1-0.1,0.2-0.3,0.4-0.7c0.1-0.3,0.2-0.5,0.3-0.6
				c0.1-0.1,0.2-0.2,0.3-0.3c0.1-0.1,0.3-0.1,0.5-0.1c0.2,0,0.3,0,0.3,0v0.5c0,0-0.1,0-0.1,0c-0.1,0-0.1,0-0.1,0
				c-0.2,0-0.3,0-0.4,0.1c-0.1,0.1-0.2,0.3-0.3,0.5c-0.1,0.4-0.3,0.6-0.4,0.7c-0.1,0.1-0.2,0.2-0.3,0.2c0.3,0.1,0.5,0.3,0.8,0.7
				l0.9,1.4h-0.7l-0.7-1.1c-0.2-0.3-0.4-0.5-0.5-0.6c-0.1-0.1-0.3-0.2-0.5-0.2v2H86V52.1z"/>
			<path class="st1" d="M89.2,54.2c0-0.7,0.2-1.2,0.6-1.6c0.4-0.4,0.9-0.6,1.4-0.6c0.4,0,0.7,0.1,1,0.3c0.3,0.2,0.5,0.4,0.7,0.8
				c0.2,0.3,0.2,0.7,0.2,1.1c0,0.4-0.1,0.8-0.3,1.1s-0.4,0.6-0.7,0.8c-0.3,0.2-0.7,0.3-1,0.3c-0.4,0-0.7-0.1-1.1-0.3
				c-0.3-0.2-0.5-0.4-0.7-0.8C89.3,54.9,89.2,54.6,89.2,54.2z M89.8,54.2c0,0.5,0.1,0.9,0.4,1.2c0.3,0.3,0.6,0.4,1,0.4
				c0.4,0,0.8-0.1,1-0.4c0.3-0.3,0.4-0.7,0.4-1.2c0-0.3-0.1-0.6-0.2-0.9c-0.1-0.3-0.3-0.5-0.5-0.6c-0.2-0.1-0.5-0.2-0.7-0.2
				c-0.4,0-0.7,0.1-1,0.4C89.9,53.2,89.8,53.6,89.8,54.2z"/>
			<path class="st1" d="M93.9,56.3v-4.2h0.8l1,3c0.1,0.3,0.2,0.5,0.2,0.6c0-0.2,0.1-0.4,0.2-0.7l1-2.9h0.7v4.2h-0.5v-3.5l-1.2,3.5
				h-0.5l-1.2-3.6v3.6H93.9z"/>
			<path class="st1" d="M98.8,52.1h3.3v4.2h-0.6v-3.7h-2.2v3.7h-0.6V52.1z"/>
			<path class="st1" d="M102.5,56.3l1.6-4.2h0.6l1.7,4.2h-0.6l-0.5-1.3h-1.7l-0.5,1.3H102.5z M103.7,54.5h1.4l-0.4-1.2
				c-0.1-0.4-0.2-0.6-0.3-0.9c-0.1,0.3-0.1,0.5-0.2,0.8L103.7,54.5z"/>
			<path class="st1" d="M106.9,56.3v-4.2h0.6v1.7h2.2v-1.7h0.6v4.2h-0.6v-2h-2.2v2H106.9z"/>
			<path class="st1" d="M111.1,52.1h0.5v3.3l2.2-3.3h0.6v4.2h-0.5V53l-2.2,3.3h-0.6V52.1z"/>
			<path class="st1" d="M118,56.3v-1.9h-0.6c-0.1,0-0.2,0-0.3,0c-0.1,0-0.2,0.1-0.3,0.1c-0.1,0.1-0.2,0.1-0.3,0.3
				c-0.1,0.1-0.2,0.3-0.4,0.6l-0.6,0.9h-0.7l0.7-1.1c0.1-0.2,0.3-0.4,0.5-0.6c0.1-0.1,0.2-0.1,0.3-0.2c-0.4-0.1-0.7-0.2-0.9-0.4
				c-0.2-0.2-0.3-0.5-0.3-0.7c0-0.2,0.1-0.4,0.2-0.6c0.1-0.2,0.3-0.3,0.5-0.4c0.2-0.1,0.5-0.1,0.8-0.1h1.9v4.2H118z M118,52.5h-1.3
				c-0.3,0-0.5,0.1-0.7,0.2c-0.1,0.1-0.2,0.3-0.2,0.5c0,0.1,0,0.3,0.1,0.4s0.2,0.2,0.3,0.3c0.1,0.1,0.3,0.1,0.6,0.1h1.2V52.5z"/>
		</g>
	</g>
</g>
</svg>
