<?xml version="1.0" encoding="utf-8"?>
<!-- Generator: Adobe Illustrator 22.0.0, SVG Export Plug-In . SVG Version: 6.00 Build 0)  -->
<svg version="1.1" id="Слой_1" xmlns="http://www.w3.org/2000/svg" xmlns:xlink="http://www.w3.org/1999/xlink" x="0px" y="0px"
	 viewBox="0 0 30 30" style="enable-background:new 0 0 30 30;" xml:space="preserve">
<style type="text/css">
	.st0{fill:#1FE5DB;}
	.st1{fill:#FFFFFF;}
	.st2{fill:#FFD900;}
	.st3{fill-rule:evenodd;clip-rule:evenodd;fill:#1FE5DB;}
	.st4{fill-rule:evenodd;clip-rule:evenodd;fill:none;stroke:#FFFFFF;stroke-width:2.5;stroke-miterlimit:10;}
	.st5{fill-rule:evenodd;clip-rule:evenodd;fill:none;stroke:#FFFFFF;stroke-width:2;stroke-miterlimit:10;}
	.st6{fill:#9966CC;}
	.st7{fill:#BA6696;}
	.st8{fill:#FF6666;}
	.st9{fill:#929AAB;}
	.st10{fill:none;stroke:#FFFFFF;stroke-width:2;stroke-linecap:round;stroke-linejoin:round;stroke-miterlimit:10;}
	.st11{fill:none;stroke:#FFFFFF;stroke-width:2.5;stroke-linecap:round;stroke-linejoin:round;stroke-miterlimit:10;}
	.st12{fill:none;stroke:#FFFFFF;stroke-width:5;stroke-linecap:round;stroke-linejoin:round;stroke-miterlimit:10;}
	.st13{fill:none;stroke:#FFFFFF;stroke-width:5.67;stroke-linecap:round;stroke-miterlimit:10;}
	.st14{fill-rule:evenodd;clip-rule:evenodd;fill:#FFFFFF;}
</style>
<g>
	<path class="st3" d="M15,0c4.1,0,7.9,1.7,10.6,4.4C28.3,7.1,30,10.9,30,15s-1.7,7.9-4.4,10.6C22.9,28.3,19.1,30,15,30
		s-7.9-1.7-10.6-4.4C1.7,22.9,0,19.1,0,15S1.7,7.1,4.4,4.4C7.1,1.7,10.9,0,15,0L15,0z M15,2.1c7.1,0,12.9,5.8,12.9,12.9
		S22.1,27.9,15,27.9S2.1,22.1,2.1,15S7.9,2.1,15,2.1L15,2.1z"/>
	<path class="st3" d="M6.5,15.1l1.6,0.6c0.4,0.1,0.7,0.3,1.1,0.4c0.9,0.3,0.7,0.2,0.8,0.6c0.2,0.7,0.5,1.5,0.7,2.2
		c0.1,0.4,0.2,0.7,0.4,1.1c0.1,0.3,0.2,0.9,0.4,1c0.4,0.2,0.7-0.2,0.9-0.4c0.3-0.2,0.5-0.4,0.8-0.7c1.6-1.3,0.6-0.9,4.2,1.2
		c0.6,0.9,1.3,1.2,1.5,0.2c0.1-0.3,0.1-0.5,0.2-0.8c0.1-0.6,0.2-1.1,0.3-1.6c0.2-1,2-9.6,2-9.8c0.1-0.4-0.1-0.7-0.5-0.6
		c-0.3,0.1-1.5,0.6-1.9,0.8c-0.6,0.2-1.2,0.5-1.9,0.7c-1.3,0.5-2.5,1-3.8,1.4c-1.3,0.5-2.5,1-3.7,1.4l-3.3,1.3
		C5.9,14.4,6,14.9,6.5,15.1L6.5,15.1z M11.6,19.2c0.4,0.1,0.3-0.2,0.4-0.5c0-0.3,0.1-0.6,0.1-0.8c0.1-0.8,0.3-0.8,0.7-1.2
		c0.1-0.1,0.3-0.3,0.5-0.5l4-3.7c0.1-0.1,1-0.9,1-1c0.1-0.4-0.5,0.1-0.6,0.1c-1.6,1-3.2,1.9-4.7,2.9c-0.4,0.3-0.8,0.5-1.2,0.7
		c-0.4,0.2-0.9,0.5-1,0.9C10.8,16.4,11.5,19,11.6,19.2L11.6,19.2z"/>
</g>
</svg>
