<?xml version="1.0" encoding="utf-8"?>
<!-- Generator: Adobe Illustrator 22.0.0, SVG Export Plug-In . SVG Version: 6.00 Build 0)  -->
<svg version="1.1" id="Слой_1" xmlns="http://www.w3.org/2000/svg" xmlns:xlink="http://www.w3.org/1999/xlink" x="0px" y="0px"
	 viewBox="0 0 28.4 30" style="enable-background:new 0 0 28.4 30;" xml:space="preserve">
<style type="text/css">
	.st0{fill:#1FE5DB;}
	.st1{fill:#FFFFFF;}
	.st2{fill:#FFD900;}
	.st3{fill-rule:evenodd;clip-rule:evenodd;fill:#1FE5DB;}
	.st4{fill-rule:evenodd;clip-rule:evenodd;fill:none;stroke:#FFFFFF;stroke-width:2.5;stroke-miterlimit:10;}
	.st5{fill-rule:evenodd;clip-rule:evenodd;fill:none;stroke:#FFFFFF;stroke-width:2;stroke-miterlimit:10;}
	.st6{fill:#9966CC;}
	.st7{fill:#BA6696;}
	.st8{fill:#FF6666;}
	.st9{fill:#929AAB;}
	.st10{fill:none;stroke:#FFFFFF;stroke-width:2;stroke-linecap:round;stroke-linejoin:round;stroke-miterlimit:10;}
	.st11{fill:none;stroke:#FFFFFF;stroke-width:2.5;stroke-linecap:round;stroke-linejoin:round;stroke-miterlimit:10;}
	.st12{fill:none;stroke:#FFFFFF;stroke-width:5;stroke-linecap:round;stroke-linejoin:round;stroke-miterlimit:10;}
	.st13{fill:none;stroke:#FFFFFF;stroke-width:5.67;stroke-linecap:round;stroke-miterlimit:10;}
	.st14{fill-rule:evenodd;clip-rule:evenodd;fill:#FFFFFF;}
</style>
<g>
	<path class="st3" d="M0.1,10.3C0,11.5,0,13.4,0,14.6c0,1.5,0.2,2.6,0.5,4C0.7,19.5,1,20.2,1.3,21c0.4,0.8,0.8,1.4,1.3,2
		c0.7,0.9,2.5,2.1,4.2,2.5c0,0.6,0,2.8,0,3.3c0.1,1.3,1,1.6,1.8,1.1C9,29.6,9.2,29.3,9.5,29c0.1-0.1,0.2-0.3,0.4-0.4l1.6-1.7
		c0.6-0.7,0.1-0.5,1.8-0.4c0.5,0,1,0,1.5,0c1,0,1.9-0.1,2.8-0.2c4-0.5,7.9-1.5,9.6-5.4c0.3-0.7,0.6-1.5,0.8-2.3
		c0.5-3.2,0.8-7.2,0-10.4c-0.1-0.3-0.3-1.1-0.3-1.3c-0.2-0.2-0.5-1.9-2.1-3.5l-0.8-0.7c-0.2-0.2-0.6-0.4-0.8-0.5
		C19.8-0.3,12.1-0.5,7.3,0.8c-1.5,0.4-2.7,1-3.8,1.8C1.4,4.2,0.3,7.5,0.1,10.3L0.1,10.3z M7.2,10.8c-0.3-0.9-1-1.8,0.1-3
		C7.7,7.4,9,6.1,9.9,7c0.5,0.5,1.4,1.8,1.7,2.3c0.6,1,0.4,1.4-0.3,2c-0.1,0.1-0.2,0.1-0.3,0.2c-0.2,0.1-0.2,0.1-0.2,0.3
		c-0.4,0.4,0.4,1.7,0.5,2c0.7,1.2,1.7,2.2,3,2.8c2.2,1,1.6-0.4,2.7-0.9c0.4-0.2,0.8-0.1,1.1,0.1c0.7,0.4,1.9,1.3,2.5,1.8
		c0.3,0.2,0.5,0.6,0.3,1.1c-0.2,0.5-0.9,1.4-1.2,1.7c-0.8,0.5-1.1,0.7-2.1,0.3c-1.8-0.7-4.2-2.1-5.5-3.2c-1.7-1.4-2.8-2.9-3.8-4.8
		C7.9,12.2,7.4,11.2,7.2,10.8L7.2,10.8z M16.9,11.8c-0.2-1.7-1.8-1.2-2-1.6c-0.1-0.2,0-0.3,0.1-0.4c0.3-0.3,2.8-0.1,2.8,2.6
		c-0.1,0.2-0.3,0.4-0.6,0.2C16.9,12.4,16.9,12.1,16.9,11.8L16.9,11.8z M18.7,12.2c0-0.7-0.3-1.3-0.6-1.8c-0.3-0.5-0.6-0.8-1.1-1.2
		s-0.9-0.5-1.6-0.7c-0.2,0-0.8-0.1-1-0.2c-0.3-0.1-0.3-0.6,0-0.7c0.3-0.1,1.6,0.2,1.9,0.3c0.4,0.1,0.8,0.4,1.1,0.6
		c1.2,0.8,1.6,1.8,1.9,3.2c0.1,0.4,0.2,1.2-0.1,1.4c-0.3,0.1-0.5,0-0.5-0.2C18.7,12.8,18.8,12.4,18.7,12.2L18.7,12.2z M20.5,11.9
		l0-0.1c0-0.6-0.7-2-0.9-2.4C19.3,9,19,8.8,18.8,8.5c-1.3-1.4-2.8-1.8-4.7-1.9c-0.6,0-0.6-0.8,0-0.8c0.9,0,2,0.2,2.8,0.5
		c0.5,0.2,1.2,0.6,1.6,0.9L19.3,8c0.7,0.7,1.2,1.6,1.6,2.5c0.1,0.2,0.3,1.2,0.4,1.3c0,0.5,0.5,2.1-0.3,2.1c-0.5,0-0.4-0.5-0.4-0.9
		C20.6,12.6,20.5,12.3,20.5,11.9L20.5,11.9z M26.3,12c0-1.6-0.3-3.2-0.8-4.6c-0.4-1.3-1.1-2.4-2.1-3.2c-0.8-0.7-2.5-1.3-3.8-1.5
		c-1.6-0.4-3.1-0.5-4.8-0.5c-3.1-0.1-6.5,0.2-8.9,1.7C5.3,4.2,4.7,4.6,4.4,5C4.3,5.1,4.2,5.2,4.1,5.3C3.8,5.7,3.6,6.1,3.3,6.6
		c-0.6,1.2-1,2.8-1,4.3c-0.2,3.6-0.4,8.5,2.5,11c0.4,0.3,0.8,0.7,1.3,0.9c0.3,0.1,0.5,0.2,0.8,0.4c0.3,0.1,0.7,0.2,0.9,0.3
		c0,0.3,0,5,0,5.3c0.1,0.7,0.9-0.2,1.1-0.4l2.7-3.1c0.1-0.1,0.2-0.2,0.3-0.3c0.2-0.2,0.4-0.4,0.5-0.7c3.3,0.1,5.8,0,8.9-0.9
		C26.3,21.8,26.3,16.5,26.3,12L26.3,12z"/>
</g>
</svg>
