<?xml version="1.0" encoding="utf-8"?>
<!-- Generator: Adobe Illustrator 22.0.0, SVG Export Plug-In . SVG Version: 6.00 Build 0)  -->
<svg version="1.1" id="Слой_1" xmlns="http://www.w3.org/2000/svg" xmlns:xlink="http://www.w3.org/1999/xlink" x="0px" y="0px"
	 viewBox="0 0 62.4 47.3" style="enable-background:new 0 0 62.4 47.3;" xml:space="preserve">
<style type="text/css">
	.st0{fill:#1FE5DB;}
	.st1{fill:#FFFFFF;}
	.st2{fill:#FFD900;}
	.st3{fill-rule:evenodd;clip-rule:evenodd;fill:#1FE5DB;}
	.st4{fill-rule:evenodd;clip-rule:evenodd;fill:none;stroke:#FFFFFF;stroke-width:2.5;stroke-miterlimit:10;}
	.st5{fill-rule:evenodd;clip-rule:evenodd;fill:none;stroke:#FFFFFF;stroke-width:2;stroke-miterlimit:10;}
	.st6{fill:#9966CC;}
	.st7{fill:#BA6696;}
	.st8{fill:#FF6666;}
	.st9{fill:#929AAB;}
	.st10{fill:none;stroke:#FFFFFF;stroke-width:2;stroke-linecap:round;stroke-linejoin:round;stroke-miterlimit:10;}
	.st11{fill:none;stroke:#FFFFFF;stroke-width:2.5;stroke-linecap:round;stroke-linejoin:round;stroke-miterlimit:10;}
	.st12{fill:none;stroke:#FFFFFF;stroke-width:5;stroke-linecap:round;stroke-linejoin:round;stroke-miterlimit:10;}
	.st13{fill:none;stroke:#FFFFFF;stroke-width:5.67;stroke-linecap:round;stroke-miterlimit:10;}
	.st14{fill-rule:evenodd;clip-rule:evenodd;fill:#FFFFFF;}
</style>
<g>
	<g>
		<g>
			
				<ellipse transform="matrix(0.5319 -0.8468 0.8468 0.5319 -8.9625 31.1205)" class="st11" cx="23.7" cy="23.7" rx="22.7" ry="22.7"/>
			
				<ellipse transform="matrix(0.5324 -0.8465 0.8465 0.5324 -8.967 31.1008)" class="st11" cx="23.7" cy="23.7" rx="14.2" ry="14.2"/>
			<path class="st11" d="M28.6,28.6c2.7-2.7,2.7-7.1,0-9.8c-2.7-2.7-7.1-2.7-9.8,0c-2.7,2.7-2.7,7.1,0,9.8
				C21.5,31.3,25.9,31.3,28.6,28.6z"/>
		</g>
		<line class="st11" x1="23.7" y1="23.7" x2="56.8" y2="23.7"/>
		<g>
			<polyline class="st11" points="61.4,28.2 56.8,23.7 61.4,19.1 			"/>
		</g>
		<g>
			<polyline class="st11" points="55.8,28.2 51.3,23.7 55.8,19.1 			"/>
		</g>
	</g>
</g>
</svg>
