<?xml version="1.0" encoding="utf-8"?>
<!-- Generator: Adobe Illustrator 22.0.0, SVG Export Plug-In . SVG Version: 6.00 Build 0)  -->
<svg version="1.1" id="Слой_1" xmlns="http://www.w3.org/2000/svg" xmlns:xlink="http://www.w3.org/1999/xlink" x="0px" y="0px"
	 viewBox="0 0 76.3 121.9" style="enable-background:new 0 0 76.3 121.9;" xml:space="preserve">
<style type="text/css">
	.st0{fill:#1FE5DB;}
	.st1{fill:#FFFFFF;}
	.st2{fill:#FFD900;}
	.st3{fill-rule:evenodd;clip-rule:evenodd;fill:#1FE5DB;}
	.st4{fill-rule:evenodd;clip-rule:evenodd;fill:none;stroke:#FFFFFF;stroke-width:2.5;stroke-miterlimit:10;}
	.st5{fill-rule:evenodd;clip-rule:evenodd;fill:none;stroke:#FFFFFF;stroke-width:2;stroke-miterlimit:10;}
	.st6{fill:#9966CC;}
	.st7{fill:#BA6696;}
	.st8{fill:#FF6666;}
	.st9{fill:#929AAB;}
	.st10{fill:none;stroke:#FFFFFF;stroke-width:2;stroke-linecap:round;stroke-linejoin:round;stroke-miterlimit:10;}
	.st11{fill:none;stroke:#FFFFFF;stroke-width:2.5;stroke-linecap:round;stroke-linejoin:round;stroke-miterlimit:10;}
	.st12{fill:none;stroke:#FFFFFF;stroke-width:5;stroke-linecap:round;stroke-linejoin:round;stroke-miterlimit:10;}
	.st13{fill:none;stroke:#FFFFFF;stroke-width:5.67;stroke-linecap:round;stroke-miterlimit:10;}
	.st14{fill-rule:evenodd;clip-rule:evenodd;fill:#FFFFFF;}
</style>
<path class="st9" d="M0,121.9V0h19.2c11.1,0,19.3,0.7,24.4,2.2C50.9,4.1,56.7,7.7,61,12.9c4.3,5.2,6.5,11.4,6.5,18.6
	c0,4.6-1,8.9-2.9,12.6c-2,3.8-5.2,7.3-9.6,10.6c7.4,3.5,12.8,7.8,16.2,13.1c3.4,5.2,5.1,11.4,5.1,18.5c0,6.9-1.8,13.1-5.3,18.7
	c-3.5,5.6-8.1,9.8-13.7,12.6c-5.6,2.8-13.3,4.2-23.1,4.2H0z M23.2,22.1v25.7h5.1c5.7,0,9.9-1.2,12.6-3.6c2.7-2.4,4.1-5.6,4.1-9.7
	c0-3.8-1.3-6.8-3.9-9.1c-2.6-2.2-6.6-3.4-11.9-3.4H23.2z M23.2,68.5v31.2H29c9.6,0,16.1-1.2,19.5-3.6c3.4-2.4,5-6,5-10.6
	c0-5.2-2-9.4-5.9-12.4c-3.9-3-10.5-4.6-19.6-4.6H23.2z"/>
</svg>
