<?xml version="1.0" encoding="utf-8"?>
<!-- Generator: Adobe Illustrator 22.0.0, SVG Export Plug-In . SVG Version: 6.00 Build 0)  -->
<svg version="1.1" id="Слой_1" xmlns="http://www.w3.org/2000/svg" xmlns:xlink="http://www.w3.org/1999/xlink" x="0px" y="0px"
	 viewBox="0 0 50.6 52" style="enable-background:new 0 0 50.6 52;" xml:space="preserve">
<style type="text/css">
	.st0{fill:#1FE5DB;}
	.st1{fill:#FFFFFF;}
	.st2{fill:#FFD900;}
	.st3{fill-rule:evenodd;clip-rule:evenodd;fill:#1FE5DB;}
	.st4{fill-rule:evenodd;clip-rule:evenodd;fill:none;stroke:#FFFFFF;stroke-width:2.5;stroke-miterlimit:10;}
	.st5{fill-rule:evenodd;clip-rule:evenodd;fill:none;stroke:#FFFFFF;stroke-width:2;stroke-miterlimit:10;}
	.st6{fill:#9966CC;}
	.st7{fill:#BA6696;}
	.st8{fill:#FF6666;}
	.st9{fill:#929AAB;}
	.st10{fill:none;stroke:#FFFFFF;stroke-width:2;stroke-linecap:round;stroke-linejoin:round;stroke-miterlimit:10;}
	.st11{fill:none;stroke:#FFFFFF;stroke-width:2.5;stroke-linecap:round;stroke-linejoin:round;stroke-miterlimit:10;}
	.st12{fill:none;stroke:#FFFFFF;stroke-width:5;stroke-linecap:round;stroke-linejoin:round;stroke-miterlimit:10;}
	.st13{fill:none;stroke:#FFFFFF;stroke-width:5.67;stroke-linecap:round;stroke-miterlimit:10;}
	.st14{fill-rule:evenodd;clip-rule:evenodd;fill:#FFFFFF;}
</style>
<g>
	<path class="st4" d="M38.4,34.3c-1.2-0.6-2.4-0.9-3.8-0.3c-3.5,1.5-1.7,6.3-8.9,2.9c-4.2-2-7.5-5.2-9.8-9.3c-0.6-1.1-3-5.4-1.8-6.7
		c0.2-0.8,0.2-0.7,0.8-1.1c0.3-0.2,0.6-0.5,0.9-0.7c2.3-1.9,3.2-3.2,1.1-6.6c-1.1-1.8-4-6.1-5.6-7.7c-3-3-7,1.6-8.4,3
		c-3.7,3.8-1.3,6.9-0.3,9.8v0.1c0.7,1.2,2.2,4.4,3.2,6.3c3.5,6.4,7.1,11.2,12.6,15.8c4.3,3.6,12.2,8.4,18.1,10.5
		c3.4,1.2,4.5,0.8,7-1c1-0.8,3.6-3.7,4.1-5.5c0.5-1.7-0.1-2.8-1-3.6C44.8,38.5,40.8,35.6,38.4,34.3z"/>
	<path class="st5" d="M35.3,23.2c0.9,0.5,1.7-0.1,1.9-0.8c0-8.8-8.2-9.6-9.1-8.6c-0.3,0.3-0.5,0.9-0.3,1.5c0.7,1.5,6.1-0.2,6.8,5.4
		v0.1C34.7,21.8,34.6,22.8,35.3,23.2z"/>
	<path class="st5" d="M38.9,16.2c1,1.7,1.7,3.7,1.8,5.9l0.1-0.1c0.1,0.6,0,2.1,0.2,2.5c0.2,0.6,0.9,1.1,1.8,0.7
		c1.1-0.5,0.7-3.3,0.4-4.6c-1-4.4-2.6-7.9-6.4-10.5c-1.1-0.7-2.5-1.5-3.7-1.9c-1.1-0.4-5.2-1.5-6.3-1c-1,0.4-1,1.9,0.1,2.3
		c0.5,0.2,2.5,0.4,3.2,0.5c2.1,0.5,3.7,1.2,5.2,2.3S37.9,14.5,38.9,16.2z"/>
	<path class="st5" d="M49.1,20.9c-0.3-0.3-0.9-3.5-1.2-4.2c-1.1-3.2-2.9-6.1-5.1-8.4l-2.9-2.5c-1.1-1-3.7-2.3-5.2-2.9
		C32,1.7,28.6,0.9,25.4,1c-2.1,0.1-2.1,2.4,0,2.5c6.3,0.3,11,1.8,15.4,6.3c0.9,1,1.7,1.8,2.5,3s3.2,5.9,3,7.8l0.2,0.5l-0.1,0.1
		c0.2,1.2,0.4,2.3,0.4,3.6c0.1,1.3-0.2,3,1.4,3C50.7,27.8,49,22.5,49.1,20.9z"/>
</g>
</svg>
