<?xml version="1.0" encoding="utf-8"?>
<!-- Generator: Adobe Illustrator 22.0.0, SVG Export Plug-In . SVG Version: 6.00 Build 0)  -->
<svg version="1.1" id="Слой_1" xmlns="http://www.w3.org/2000/svg" xmlns:xlink="http://www.w3.org/1999/xlink" x="0px" y="0px"
	 viewBox="0 0 119.2 121.7" style="enable-background:new 0 0 119.2 121.7;" xml:space="preserve">
<style type="text/css">
	.st0{fill:#1FE5DB;}
	.st1{fill:#FFFFFF;}
	.st2{fill:#FFD900;}
	.st3{fill-rule:evenodd;clip-rule:evenodd;fill:#1FE5DB;}
	.st4{fill-rule:evenodd;clip-rule:evenodd;fill:none;stroke:#FFFFFF;stroke-width:2.5;stroke-miterlimit:10;}
	.st5{fill-rule:evenodd;clip-rule:evenodd;fill:none;stroke:#FFFFFF;stroke-width:2;stroke-miterlimit:10;}
	.st6{fill:#9966CC;}
	.st7{fill:#BA6696;}
	.st8{fill:#FF6666;}
	.st9{fill:#929AAB;}
	.st10{fill:none;stroke:#FFFFFF;stroke-width:2;stroke-linecap:round;stroke-linejoin:round;stroke-miterlimit:10;}
	.st11{fill:none;stroke:#FFFFFF;stroke-width:2.5;stroke-linecap:round;stroke-linejoin:round;stroke-miterlimit:10;}
	.st12{fill:none;stroke:#FFFFFF;stroke-width:5;stroke-linecap:round;stroke-linejoin:round;stroke-miterlimit:10;}
	.st13{fill:none;stroke:#FFFFFF;stroke-width:5.67;stroke-linecap:round;stroke-miterlimit:10;}
	.st14{fill-rule:evenodd;clip-rule:evenodd;fill:#FFFFFF;}
</style>
<path class="st9" d="M100.1,96.9l19.2,24.8H94.4l-9.7-12.5c-8.1,4.4-17,6.6-26.9,6.6c-16.6,0-30.3-5.7-41.3-17.1
	C5.5,87.3,0,73.7,0,57.9c0-10.5,2.5-20.2,7.6-29c5.1-8.8,12.1-15.8,21-21C37.6,2.6,47.2,0,57.4,0c15.6,0,29.1,5.6,40.3,16.9
	C109,28.2,114.6,42,114.6,58.2C114.6,73.2,109.8,86.1,100.1,96.9z M86.9,80c4.4-6.6,6.7-13.9,6.7-21.9c0-10.4-3.5-19.3-10.6-26.6
	C76,24.2,67.5,20.5,57.4,20.5c-10.3,0-18.9,3.5-25.9,10.6c-7,7.1-10.4,16.1-10.4,27.1c0,12.2,4.4,21.8,13.1,28.9
	c6.9,5.5,14.6,8.3,23.3,8.3c5,0,9.7-1,14.1-2.9L52,67.2h25L86.9,80z"/>
</svg>
