<?xml version="1.0" encoding="utf-8"?>
<!-- Generator: Adobe Illustrator 22.0.0, SVG Export Plug-In . SVG Version: 6.00 Build 0)  -->
<svg version="1.1" id="Слой_1" xmlns="http://www.w3.org/2000/svg" xmlns:xlink="http://www.w3.org/1999/xlink" x="0px" y="0px"
	 viewBox="0 0 32.1 42.6" style="enable-background:new 0 0 32.1 42.6;" xml:space="preserve">
<style type="text/css">
	.st0{fill:#1FE5DB;}
	.st1{fill:#FFFFFF;}
	.st2{fill:#FFD900;}
	.st3{fill-rule:evenodd;clip-rule:evenodd;fill:#1FE5DB;}
	.st4{fill-rule:evenodd;clip-rule:evenodd;fill:none;stroke:#FFFFFF;stroke-width:2.5;stroke-miterlimit:10;}
	.st5{fill-rule:evenodd;clip-rule:evenodd;fill:none;stroke:#FFFFFF;stroke-width:2;stroke-miterlimit:10;}
	.st6{fill:#9966CC;}
	.st7{fill:#BA6696;}
	.st8{fill:#FF6666;}
	.st9{fill:#929AAB;}
	.st10{fill:none;stroke:#FFFFFF;stroke-width:2;stroke-linecap:round;stroke-linejoin:round;stroke-miterlimit:10;}
	.st11{fill:none;stroke:#FFFFFF;stroke-width:2.5;stroke-linecap:round;stroke-linejoin:round;stroke-miterlimit:10;}
	.st12{fill:none;stroke:#FFFFFF;stroke-width:5;stroke-linecap:round;stroke-linejoin:round;stroke-miterlimit:10;}
	.st13{fill:none;stroke:#FFFFFF;stroke-width:5.67;stroke-linecap:round;stroke-miterlimit:10;}
	.st14{fill-rule:evenodd;clip-rule:evenodd;fill:#FFFFFF;}
</style>
<g>
	<path class="st10" d="M28,6.8V1H16.2h-0.1h-12v5.8c0,2.4,1,4.8,2.7,6.5l8,8.1l-8,8c-1.7,1.7-2.7,4-2.7,6.4v5.8h12h0.1H28v-5.8
		c0-2.4-0.9-4.7-2.6-6.4l-7.9-8l7.9-8.1C27,11.6,28,9.3,28,6.8z"/>
	<path class="st10" d="M4.3,8.9l9.9,5.9c1.1,0.7,2.5,0.7,3.6,0l9.9-5.9"/>
	<path class="st10" d="M4.3,38.1l9.9-7.2c1.1-0.8,2.5-0.8,3.6,0l9.9,7.2"/>
	<line class="st10" x1="1" y1="1" x2="31.1" y2="1"/>
	<line class="st10" x1="1" y1="41.6" x2="31.1" y2="41.6"/>
</g>
</svg>
