<?xml version="1.0" encoding="utf-8"?>
<!-- Generator: Adobe Illustrator 22.0.0, SVG Export Plug-In . SVG Version: 6.00 Build 0)  -->
<svg version="1.1" id="Слой_1" xmlns="http://www.w3.org/2000/svg" xmlns:xlink="http://www.w3.org/1999/xlink" x="0px" y="0px"
	 viewBox="0 0 30 30" style="enable-background:new 0 0 30 30;" xml:space="preserve">
<style type="text/css">
	.st0{fill:#1FE5DB;}
	.st1{fill:#FFFFFF;}
	.st2{fill:#FFD900;}
	.st3{fill-rule:evenodd;clip-rule:evenodd;fill:#1FE5DB;}
	.st4{fill-rule:evenodd;clip-rule:evenodd;fill:none;stroke:#FFFFFF;stroke-width:2.5;stroke-miterlimit:10;}
	.st5{fill-rule:evenodd;clip-rule:evenodd;fill:none;stroke:#FFFFFF;stroke-width:2;stroke-miterlimit:10;}
	.st6{fill:#9966CC;}
	.st7{fill:#BA6696;}
	.st8{fill:#FF6666;}
	.st9{fill:#929AAB;}
	.st10{fill:none;stroke:#FFFFFF;stroke-width:2;stroke-linecap:round;stroke-linejoin:round;stroke-miterlimit:10;}
	.st11{fill:none;stroke:#FFFFFF;stroke-width:2.5;stroke-linecap:round;stroke-linejoin:round;stroke-miterlimit:10;}
	.st12{fill:none;stroke:#FFFFFF;stroke-width:5;stroke-linecap:round;stroke-linejoin:round;stroke-miterlimit:10;}
	.st13{fill:none;stroke:#FFFFFF;stroke-width:5.67;stroke-linecap:round;stroke-miterlimit:10;}
	.st14{fill-rule:evenodd;clip-rule:evenodd;fill:#FFFFFF;}
</style>
<g>
	<g>
		<path class="st1" d="M15,2.7c4,0,4.5,0,6.1,0.1c1.5,0.1,2.3,0.3,2.8,0.5c0.7,0.3,1.2,0.6,1.7,1.1c0.5,0.5,0.9,1,1.1,1.7
			c0.2,0.5,0.4,1.3,0.5,2.8c0.1,1.6,0.1,2.1,0.1,6.1c0,4,0,4.5-0.1,6.1c-0.1,1.5-0.3,2.3-0.5,2.8c-0.3,0.7-0.6,1.2-1.1,1.7
			c-0.5,0.5-1,0.8-1.7,1.1c-0.5,0.2-1.3,0.4-2.8,0.5c-1.6,0.1-2.1,0.1-6.1,0.1c-4,0-4.5,0-6.1-0.1c-1.5-0.1-2.3-0.3-2.8-0.5
			c-0.7-0.3-1.2-0.6-1.7-1.1c-0.5-0.5-0.8-1-1.1-1.7c-0.2-0.5-0.4-1.3-0.5-2.8C2.7,19.5,2.7,19,2.7,15c0-4,0-4.5,0.1-6.1
			c0.1-1.5,0.3-2.3,0.5-2.8C3.6,5.5,3.9,5,4.4,4.4c0.5-0.5,1-0.8,1.7-1.1c0.5-0.2,1.3-0.4,2.8-0.5C10.5,2.7,11,2.7,15,2.7 M15,0
			c-4.1,0-4.6,0-6.2,0.1C7.2,0.2,6.1,0.4,5.2,0.8c-1,0.4-1.8,0.9-2.7,1.7C1.7,3.4,1.2,4.2,0.8,5.2c-0.4,1-0.6,2-0.7,3.6
			C0,10.4,0,10.9,0,15c0,4.1,0,4.6,0.1,6.2c0.1,1.6,0.3,2.7,0.7,3.6c0.4,1,0.9,1.8,1.7,2.7c0.8,0.8,1.7,1.3,2.7,1.7
			c1,0.4,2,0.6,3.6,0.7C10.4,30,10.9,30,15,30c4.1,0,4.6,0,6.2-0.1c1.6-0.1,2.7-0.3,3.6-0.7c1-0.4,1.8-0.9,2.7-1.7
			c0.8-0.8,1.3-1.7,1.7-2.7c0.4-1,0.6-2,0.7-3.6C30,19.6,30,19.1,30,15c0-4.1,0-4.6-0.1-6.2c-0.1-1.6-0.3-2.7-0.7-3.6
			c-0.4-1-0.9-1.8-1.7-2.7c-0.8-0.8-1.7-1.3-2.7-1.7c-1-0.4-2-0.6-3.6-0.7C19.6,0,19.1,0,15,0"/>
		<path class="st1" d="M16.5,17.8c0.8-0.7,1.7,1.7,2.8,2s3.6,0.3,3.9,0c0.3-0.3,0.3-0.6-0.2-1.3c-0.5-0.7-2.3-2-2.5-2.7
			s1.9-2.6,2.4-3.7c0.5-1,0.7-1.3,0.3-1.5s-3.2-0.4-3.7,0c-0.5,0.4-1,2.3-1.6,3s-1,1.4-1.5,1.2c-0.4-0.2,0.2-3.8-0.3-4.3
			c-0.5-0.6-2.9-0.7-3.6-0.4c-0.7,0.3-1,0.6-0.8,0.7c0.2,0.1,0.7,0,0.9,0.4c0.2,0.4,0.4,1.9,0.3,2.7c-0.1,0.8-0.3,1.2-0.6,1.1
			c-0.2-0.1-1.4-1.3-2.1-2.7c-0.7-1.4-0.2-1.5-1-1.8S6,10.3,6,10.7c-0.1,0.4,1.5,4.1,3.1,6.1s3.1,3,4.8,3.1s2.2,0,2.2-0.7
			S16,18.2,16.5,17.8z"/>
	</g>
</g>
</svg>
